<mxfile host="app.diagrams.net" modified="2023-12-11T12:32:04.772Z" agent="Mozilla/5.0 (Windows NT 10.0; Win64; x64; rv:120.0) Gecko/20100101 Firefox/120.0" etag="Q63HLZcscrp1GQt-OpLU" version="22.1.7" type="github">
  <diagram name="Page-1" id="r3rkmFNmLRt66x1h-lxk">
    <mxGraphModel dx="3370" dy="2720" grid="1" gridSize="10" guides="1" tooltips="1" connect="1" arrows="1" fold="1" page="1" pageScale="1" pageWidth="850" pageHeight="1100" math="0" shadow="0">
      <root>
        <mxCell id="0" />
        <mxCell id="1" parent="0" />
        <mxCell id="8AMOiluZaFN2airyjKjj-1" style="edgeStyle=orthogonalEdgeStyle;rounded=0;orthogonalLoop=1;jettySize=auto;html=1;exitX=1;exitY=0.5;exitDx=0;exitDy=0;" edge="1" parent="1" source="8AMOiluZaFN2airyjKjj-2" target="8AMOiluZaFN2airyjKjj-4">
          <mxGeometry relative="1" as="geometry">
            <mxPoint x="1610" y="-240" as="targetPoint" />
          </mxGeometry>
        </mxCell>
        <mxCell id="8AMOiluZaFN2airyjKjj-2" value="&lt;div&gt;Create mission&lt;/div&gt;" style="rounded=0;whiteSpace=wrap;html=1;" vertex="1" parent="1">
          <mxGeometry x="1310" y="-270" width="120" height="60" as="geometry" />
        </mxCell>
        <mxCell id="8AMOiluZaFN2airyjKjj-3" style="edgeStyle=orthogonalEdgeStyle;rounded=0;orthogonalLoop=1;jettySize=auto;html=1;entryX=0;entryY=0.5;entryDx=0;entryDy=0;" edge="1" parent="1" source="8AMOiluZaFN2airyjKjj-4" target="8AMOiluZaFN2airyjKjj-7">
          <mxGeometry relative="1" as="geometry" />
        </mxCell>
        <mxCell id="8AMOiluZaFN2airyjKjj-4" value="Create Flightplan" style="rounded=0;whiteSpace=wrap;html=1;" vertex="1" parent="1">
          <mxGeometry x="1550" y="-270" width="120" height="60" as="geometry" />
        </mxCell>
        <mxCell id="8AMOiluZaFN2airyjKjj-5" value="&lt;div&gt;name&lt;/div&gt;&lt;div&gt;owner&lt;br&gt;&lt;/div&gt;" style="text;html=1;strokeColor=none;fillColor=none;align=center;verticalAlign=middle;whiteSpace=wrap;rounded=0;" vertex="1" parent="1">
          <mxGeometry x="1430" y="-280" width="60" height="30" as="geometry" />
        </mxCell>
        <mxCell id="8AMOiluZaFN2airyjKjj-6" value="&lt;div&gt;boundary&lt;/div&gt;&lt;div&gt;checkpoints&lt;/div&gt;&lt;div&gt;main location&lt;br&gt;&lt;/div&gt;" style="text;html=1;strokeColor=none;fillColor=none;align=center;verticalAlign=middle;whiteSpace=wrap;rounded=0;" vertex="1" parent="1">
          <mxGeometry x="1667" y="-280" width="110" height="30" as="geometry" />
        </mxCell>
        <mxCell id="8AMOiluZaFN2airyjKjj-7" value="Create Rescue Date" style="rounded=0;whiteSpace=wrap;html=1;" vertex="1" parent="1">
          <mxGeometry x="1837" y="-270" width="120" height="60" as="geometry" />
        </mxCell>
        <mxCell id="8AMOiluZaFN2airyjKjj-8" value="&lt;div&gt;participants&lt;/div&gt;&lt;div&gt;aircraft&lt;/div&gt;&lt;div&gt;date&lt;/div&gt;" style="text;html=1;strokeColor=none;fillColor=none;align=center;verticalAlign=middle;whiteSpace=wrap;rounded=0;" vertex="1" parent="1">
          <mxGeometry x="1940" y="-300" width="110" height="30" as="geometry" />
        </mxCell>
        <mxCell id="8AMOiluZaFN2airyjKjj-9" style="edgeStyle=orthogonalEdgeStyle;rounded=0;orthogonalLoop=1;jettySize=auto;html=1;entryX=0;entryY=0.5;entryDx=0;entryDy=0;" edge="1" parent="1" source="8AMOiluZaFN2airyjKjj-10" target="8AMOiluZaFN2airyjKjj-30">
          <mxGeometry relative="1" as="geometry" />
        </mxCell>
        <mxCell id="8AMOiluZaFN2airyjKjj-10" value="&lt;div&gt;mark self as active helper for rescue date&lt;br&gt;&lt;/div&gt;" style="rounded=0;whiteSpace=wrap;html=1;" vertex="1" parent="1">
          <mxGeometry x="1230" y="-80" width="120" height="60" as="geometry" />
        </mxCell>
        <mxCell id="8AMOiluZaFN2airyjKjj-11" value="current location" style="text;html=1;strokeColor=none;fillColor=none;align=center;verticalAlign=middle;whiteSpace=wrap;rounded=0;" vertex="1" parent="1">
          <mxGeometry x="1315" y="-115" width="110" height="30" as="geometry" />
        </mxCell>
        <mxCell id="8AMOiluZaFN2airyjKjj-12" style="edgeStyle=orthogonalEdgeStyle;rounded=0;orthogonalLoop=1;jettySize=auto;html=1;entryX=0;entryY=0.5;entryDx=0;entryDy=0;" edge="1" parent="1" source="8AMOiluZaFN2airyjKjj-14" target="8AMOiluZaFN2airyjKjj-25">
          <mxGeometry relative="1" as="geometry" />
        </mxCell>
        <mxCell id="8AMOiluZaFN2airyjKjj-13" style="edgeStyle=orthogonalEdgeStyle;rounded=0;orthogonalLoop=1;jettySize=auto;html=1;entryX=0;entryY=0.5;entryDx=0;entryDy=0;" edge="1" parent="1" source="8AMOiluZaFN2airyjKjj-14" target="8AMOiluZaFN2airyjKjj-26">
          <mxGeometry relative="1" as="geometry" />
        </mxCell>
        <mxCell id="8AMOiluZaFN2airyjKjj-14" value="Mark detection" style="rounded=0;whiteSpace=wrap;html=1;" vertex="1" parent="1">
          <mxGeometry x="1875" y="-85" width="120" height="60" as="geometry" />
        </mxCell>
        <mxCell id="8AMOiluZaFN2airyjKjj-15" style="edgeStyle=orthogonalEdgeStyle;rounded=0;orthogonalLoop=1;jettySize=auto;html=1;entryX=0;entryY=0.5;entryDx=0;entryDy=0;" edge="1" parent="1" source="8AMOiluZaFN2airyjKjj-21" target="8AMOiluZaFN2airyjKjj-14">
          <mxGeometry relative="1" as="geometry" />
        </mxCell>
        <mxCell id="8AMOiluZaFN2airyjKjj-16" style="edgeStyle=orthogonalEdgeStyle;rounded=0;orthogonalLoop=1;jettySize=auto;html=1;entryX=0;entryY=0.5;entryDx=0;entryDy=0;" edge="1" parent="1" source="8AMOiluZaFN2airyjKjj-17" target="8AMOiluZaFN2airyjKjj-39">
          <mxGeometry relative="1" as="geometry" />
        </mxCell>
        <mxCell id="8AMOiluZaFN2airyjKjj-17" value="new detection is discovered by the aircraft" style="rounded=0;whiteSpace=wrap;html=1;" vertex="1" parent="1">
          <mxGeometry x="1425" y="-85" width="120" height="60" as="geometry" />
        </mxCell>
        <mxCell id="8AMOiluZaFN2airyjKjj-18" style="edgeStyle=orthogonalEdgeStyle;rounded=0;orthogonalLoop=1;jettySize=auto;html=1;entryX=0.003;entryY=0.583;entryDx=0;entryDy=0;entryPerimeter=0;" edge="1" parent="1" source="8AMOiluZaFN2airyjKjj-10" target="8AMOiluZaFN2airyjKjj-17">
          <mxGeometry relative="1" as="geometry" />
        </mxCell>
        <mxCell id="8AMOiluZaFN2airyjKjj-19" value="&lt;div&gt;mark self as inactive for rescue date&lt;br&gt;&lt;/div&gt;" style="rounded=0;whiteSpace=wrap;html=1;" vertex="1" parent="1">
          <mxGeometry x="1425" y="10" width="120" height="60" as="geometry" />
        </mxCell>
        <mxCell id="8AMOiluZaFN2airyjKjj-20" value="" style="edgeStyle=orthogonalEdgeStyle;rounded=0;orthogonalLoop=1;jettySize=auto;html=1;entryX=0;entryY=0.5;entryDx=0;entryDy=0;" edge="1" parent="1" source="8AMOiluZaFN2airyjKjj-17" target="8AMOiluZaFN2airyjKjj-21">
          <mxGeometry relative="1" as="geometry">
            <mxPoint x="1640" y="-50" as="sourcePoint" />
            <mxPoint x="1925" y="20" as="targetPoint" />
          </mxGeometry>
        </mxCell>
        <mxCell id="8AMOiluZaFN2airyjKjj-21" value="Assign yourself to the detection" style="rounded=0;whiteSpace=wrap;html=1;" vertex="1" parent="1">
          <mxGeometry x="1655" y="-85" width="120" height="60" as="geometry" />
        </mxCell>
        <mxCell id="8AMOiluZaFN2airyjKjj-22" value="&lt;div&gt;detection location&lt;/div&gt;&lt;div&gt;assigned helpers (0/1)&lt;/div&gt;&lt;div&gt;confirmed&lt;br&gt;&lt;/div&gt;" style="text;html=1;strokeColor=none;fillColor=none;align=center;verticalAlign=middle;whiteSpace=wrap;rounded=0;" vertex="1" parent="1">
          <mxGeometry x="1505" y="-115" width="159" height="30" as="geometry" />
        </mxCell>
        <mxCell id="8AMOiluZaFN2airyjKjj-23" value="&lt;div&gt;assigned helpers (1/1)&lt;/div&gt;&lt;div&gt;confirmed = NULL&lt;br&gt;&lt;/div&gt;" style="text;html=1;strokeColor=none;fillColor=none;align=center;verticalAlign=middle;whiteSpace=wrap;rounded=0;" vertex="1" parent="1">
          <mxGeometry x="1729" y="-120" width="159" height="30" as="geometry" />
        </mxCell>
        <mxCell id="8AMOiluZaFN2airyjKjj-24" value="&lt;div&gt;assigned helpers (1/3)&lt;/div&gt;&lt;div&gt;confirmed = True&lt;br&gt;&lt;/div&gt;" style="text;html=1;strokeColor=none;fillColor=none;align=center;verticalAlign=middle;whiteSpace=wrap;rounded=0;" vertex="1" parent="1">
          <mxGeometry x="2115" y="-160" width="159" height="30" as="geometry" />
        </mxCell>
        <mxCell id="8AMOiluZaFN2airyjKjj-25" value="Confirmed" style="rounded=0;whiteSpace=wrap;html=1;" vertex="1" parent="1">
          <mxGeometry x="2070" y="-130" width="120" height="60" as="geometry" />
        </mxCell>
        <mxCell id="8AMOiluZaFN2airyjKjj-26" value="False positive" style="rounded=0;whiteSpace=wrap;html=1;" vertex="1" parent="1">
          <mxGeometry x="2070" y="-25" width="120" height="60" as="geometry" />
        </mxCell>
        <mxCell id="8AMOiluZaFN2airyjKjj-27" value="detection is deleted from map" style="text;html=1;strokeColor=none;fillColor=none;align=center;verticalAlign=middle;whiteSpace=wrap;rounded=0;" vertex="1" parent="1">
          <mxGeometry x="2130" y="-50" width="159" height="30" as="geometry" />
        </mxCell>
        <mxCell id="8AMOiluZaFN2airyjKjj-28" style="edgeStyle=orthogonalEdgeStyle;rounded=0;orthogonalLoop=1;jettySize=auto;html=1;entryX=0.008;entryY=0.593;entryDx=0;entryDy=0;entryPerimeter=0;" edge="1" parent="1" source="8AMOiluZaFN2airyjKjj-10" target="8AMOiluZaFN2airyjKjj-19">
          <mxGeometry relative="1" as="geometry" />
        </mxCell>
        <mxCell id="8AMOiluZaFN2airyjKjj-29" style="edgeStyle=orthogonalEdgeStyle;rounded=0;orthogonalLoop=1;jettySize=auto;html=1;entryX=1;entryY=0.5;entryDx=0;entryDy=0;" edge="1" parent="1" source="8AMOiluZaFN2airyjKjj-30" target="8AMOiluZaFN2airyjKjj-25">
          <mxGeometry relative="1" as="geometry">
            <Array as="points">
              <mxPoint x="2320" y="120" />
              <mxPoint x="2320" y="-100" />
            </Array>
          </mxGeometry>
        </mxCell>
        <mxCell id="8AMOiluZaFN2airyjKjj-30" value="manually add detection" style="rounded=0;whiteSpace=wrap;html=1;" vertex="1" parent="1">
          <mxGeometry x="1425" y="90" width="120" height="60" as="geometry" />
        </mxCell>
        <mxCell id="8AMOiluZaFN2airyjKjj-31" style="edgeStyle=orthogonalEdgeStyle;rounded=0;orthogonalLoop=1;jettySize=auto;html=1;entryX=0;entryY=0.5;entryDx=0;entryDy=0;" edge="1" parent="1" source="8AMOiluZaFN2airyjKjj-36" target="8AMOiluZaFN2airyjKjj-37">
          <mxGeometry relative="1" as="geometry" />
        </mxCell>
        <mxCell id="8AMOiluZaFN2airyjKjj-32" style="edgeStyle=orthogonalEdgeStyle;rounded=0;orthogonalLoop=1;jettySize=auto;html=1;entryX=0;entryY=0.5;entryDx=0;entryDy=0;" edge="1" parent="1" source="8AMOiluZaFN2airyjKjj-36" target="8AMOiluZaFN2airyjKjj-40">
          <mxGeometry relative="1" as="geometry" />
        </mxCell>
        <mxCell id="8AMOiluZaFN2airyjKjj-33" style="edgeStyle=orthogonalEdgeStyle;rounded=0;orthogonalLoop=1;jettySize=auto;html=1;entryX=0;entryY=0.5;entryDx=0;entryDy=0;" edge="1" parent="1" source="8AMOiluZaFN2airyjKjj-36" target="8AMOiluZaFN2airyjKjj-41">
          <mxGeometry relative="1" as="geometry" />
        </mxCell>
        <mxCell id="8AMOiluZaFN2airyjKjj-34" style="edgeStyle=orthogonalEdgeStyle;rounded=0;orthogonalLoop=1;jettySize=auto;html=1;entryX=0;entryY=0.5;entryDx=0;entryDy=0;" edge="1" parent="1" source="8AMOiluZaFN2airyjKjj-36" target="8AMOiluZaFN2airyjKjj-42">
          <mxGeometry relative="1" as="geometry" />
        </mxCell>
        <mxCell id="8AMOiluZaFN2airyjKjj-35" style="edgeStyle=orthogonalEdgeStyle;rounded=0;orthogonalLoop=1;jettySize=auto;html=1;entryX=0;entryY=0.5;entryDx=0;entryDy=0;" edge="1" parent="1" source="8AMOiluZaFN2airyjKjj-36" target="8AMOiluZaFN2airyjKjj-43">
          <mxGeometry relative="1" as="geometry" />
        </mxCell>
        <mxCell id="8AMOiluZaFN2airyjKjj-36" value="&lt;div&gt;mark self as active pilot for rescue date&lt;br&gt;&lt;/div&gt;" style="rounded=0;whiteSpace=wrap;html=1;" vertex="1" parent="1">
          <mxGeometry x="1220" y="270" width="120" height="60" as="geometry" />
        </mxCell>
        <mxCell id="8AMOiluZaFN2airyjKjj-37" value="start the aircraft" style="rounded=0;whiteSpace=wrap;html=1;" vertex="1" parent="1">
          <mxGeometry x="1420" y="270" width="120" height="60" as="geometry" />
        </mxCell>
        <mxCell id="8AMOiluZaFN2airyjKjj-38" style="edgeStyle=orthogonalEdgeStyle;rounded=0;orthogonalLoop=1;jettySize=auto;html=1;entryX=0;entryY=0.5;entryDx=0;entryDy=0;" edge="1" parent="1" source="8AMOiluZaFN2airyjKjj-39" target="8AMOiluZaFN2airyjKjj-14">
          <mxGeometry relative="1" as="geometry" />
        </mxCell>
        <mxCell id="8AMOiluZaFN2airyjKjj-39" value="Get assigned to detection by pilot" style="rounded=0;whiteSpace=wrap;html=1;" vertex="1" parent="1">
          <mxGeometry x="1657" y="-10" width="120" height="60" as="geometry" />
        </mxCell>
        <mxCell id="8AMOiluZaFN2airyjKjj-40" value="RTH the aircraft" style="rounded=0;whiteSpace=wrap;html=1;" vertex="1" parent="1">
          <mxGeometry x="1420" y="340" width="120" height="60" as="geometry" />
        </mxCell>
        <mxCell id="8AMOiluZaFN2airyjKjj-41" value="emergency land the aircraft" style="rounded=0;whiteSpace=wrap;html=1;" vertex="1" parent="1">
          <mxGeometry x="1420" y="420" width="120" height="60" as="geometry" />
        </mxCell>
        <mxCell id="8AMOiluZaFN2airyjKjj-42" value="assign different user as pilot" style="rounded=0;whiteSpace=wrap;html=1;" vertex="1" parent="1">
          <mxGeometry x="1420" y="500" width="120" height="60" as="geometry" />
        </mxCell>
        <mxCell id="8AMOiluZaFN2airyjKjj-43" value="inspect detection and assign it to helper" style="rounded=0;whiteSpace=wrap;html=1;" vertex="1" parent="1">
          <mxGeometry x="1420" y="580" width="120" height="60" as="geometry" />
        </mxCell>
        <mxCell id="8AMOiluZaFN2airyjKjj-44" value="&lt;font style=&quot;font-size: 48px;&quot;&gt;&lt;u&gt;&lt;b&gt;User Action Flows&lt;/b&gt;&lt;br&gt;&lt;/u&gt;&lt;/font&gt;" style="text;html=1;align=center;verticalAlign=middle;resizable=0;points=[];autosize=1;strokeColor=none;fillColor=none;" vertex="1" parent="1">
          <mxGeometry x="1120" y="-490" width="440" height="70" as="geometry" />
        </mxCell>
      </root>
    </mxGraphModel>
  </diagram>
</mxfile>
